<svg width="1080" height="1080" viewBox="0 0 1080 1080" fill="none" xmlns="http://www.w3.org/2000/svg">
<g clip-path="url(#clip0_98_6)">
<path d="M1000 0H80C35.8172 0 0 35.8172 0 80V1000C0 1044.18 35.8172 1080 80 1080H1000C1044.18 1080 1080 1044.18 1080 1000V80C1080 35.8172 1044.18 0 1000 0Z" fill="black"/>
<path fill-rule="evenodd" clip-rule="evenodd" d="M461.051 446.375V591.513C495.63 598.196 531.583 594.357 563.705 580.533C596.197 566.55 623.042 543.094 640.267 513.637C657.493 484.18 664.184 450.287 659.35 416.974C654.516 383.66 638.414 352.696 613.427 328.664C588.439 304.632 555.895 288.808 520.609 283.535C485.323 278.262 449.17 283.819 417.502 299.385C385.833 314.951 360.33 339.697 344.768 369.963C329.206 400.229 324.41 434.405 331.092 467.434L226.607 486.154C215.653 432.007 223.514 375.98 249.026 326.364C274.538 276.748 316.345 236.18 368.261 210.663C420.178 185.145 479.444 176.035 537.29 184.679C595.136 193.323 648.487 219.264 689.45 258.661C730.412 298.058 756.809 348.818 764.734 403.431C772.658 458.043 761.69 513.606 733.451 561.896C711.726 599.047 680.668 630.375 643.241 653.289L827.939 882.557L827.932 882.562L828.666 883.497H693.447L537.702 691.571C512.425 695.385 486.619 695.844 461.051 692.869V883.497H354.131V446.375H461.051Z" fill="white"/>
<path fill-rule="evenodd" clip-rule="evenodd" d="M367.159 208.419C419.536 182.675 479.317 173.488 537.659 182.206C596.002 190.925 649.835 217.091 691.183 256.859C732.533 296.629 759.201 347.892 767.208 403.072C775.215 458.253 764.129 514.386 735.609 563.158C714.139 599.874 683.651 630.942 646.964 653.924L831.482 882.97L831.45 882.996L833.804 885.997H692.256L536.659 694.253C512.535 697.772 487.949 698.265 463.551 695.663V885.997H351.631V443.875H463.551V589.438C497.017 595.494 531.686 591.591 562.716 578.236C594.737 564.456 621.163 541.354 638.109 512.375C655.053 483.4 661.627 450.077 656.876 417.333C652.124 384.586 636.293 354.125 611.694 330.466C587.092 306.804 555.028 291.206 520.239 286.007C485.45 280.809 449.812 286.29 418.604 301.629C387.398 316.967 362.298 341.337 346.991 371.106C331.686 400.872 326.975 434.471 333.543 466.939L334.049 469.445L224.641 489.046L224.156 486.649C213.089 431.94 221.034 375.336 246.803 325.221C272.57 275.109 314.779 234.164 367.159 208.419ZM823.472 880.997L639.51 652.642L641.936 651.156C679.023 628.45 709.783 597.417 731.293 560.634C759.25 512.826 770.102 457.834 762.26 403.79C754.417 349.745 728.292 299.487 687.717 260.462C647.14 221.436 594.269 195.722 536.92 187.151C479.571 178.581 420.819 187.616 369.364 212.906C317.911 238.196 276.506 278.388 251.249 327.507C226.371 375.891 218.453 430.421 228.584 483.26L328.156 465.421C322.096 432.611 327.119 398.819 342.545 368.82C358.362 338.058 384.267 312.934 416.399 297.141C448.529 281.349 485.196 275.715 520.978 281.062C556.761 286.41 589.787 302.459 615.16 326.862C640.534 351.267 656.907 382.734 661.824 416.615C666.74 450.497 659.933 484.961 642.425 514.899C624.92 544.835 597.656 568.643 564.693 582.829C532.107 596.853 495.644 600.745 460.577 593.968L458.551 593.576V448.875H356.631V880.997H458.551V690.061L461.34 690.386C486.688 693.336 512.27 692.88 537.329 689.099L538.742 688.886L694.638 880.997H823.472Z" fill="white"/>
</g>
<defs>
<clipPath id="clip0_98_6">
<rect width="1080" height="1080" fill="white"/>
</clipPath>
</defs>
</svg>
