<svg width="1497" height="196" viewBox="0 0 1497 196" fill="none" xmlns="http://www.w3.org/2000/svg">
<path d="M203.634 105.018C208.14 92.3056 218.105 86.4854 231.988 86.4854C238.87 86.4854 244.329 87.6748 249.198 89.3364C248.482 93.377 247.412 102.166 247.176 106.924C242.316 104.9 236.975 103.837 229.739 103.837C214.551 103.955 205.175 110.248 205.175 127.245C205.175 138.296 205.175 155.638 205.647 162.766H185C185.236 152.905 185.354 138.65 185.354 123.559C185.354 108.232 185.236 96.7094 185 86.4944H203.271C203.035 91.7245 202.917 98.371 202.799 104.909L203.634 105.018Z" fill="black"/>
<path d="M317.531 116.586C317.531 106.071 312.788 100.75 294.046 100.75C275.176 100.75 269.718 105.826 269.963 115.859C267.587 115.623 264.386 115.623 261.185 115.623C257.749 115.623 254.421 115.623 251.936 115.986C251.818 96.2828 264.159 86.4946 294.173 86.4946C326.317 86.4946 336.881 98.0988 336.881 115.632C336.881 124.095 336.409 130.741 336.409 139.567C336.409 148.029 337.008 159.025 338.195 162.775H322.173C318.501 162.775 317.667 160.36 317.667 155.884C317.667 153.223 317.667 149.964 317.902 146.577H317.068C312.562 157.091 300.339 162.775 281.478 162.775C259.889 162.775 249.207 156.737 249.207 141.864C249.207 127.118 261.067 120.59 287.408 120.59C299.985 120.59 310.549 121.189 317.54 122.524V116.586H317.531ZM317.413 130.614C309.107 129.643 299.849 129.279 290.129 129.279C274.469 129.279 267.823 132.548 267.823 139.313C267.823 145.959 273.281 149.346 288.351 149.346C307.094 149.346 317.422 142.091 317.422 132.058V130.614H317.413Z" fill="black"/>
<path d="M581.83 105.018C586.337 92.3056 596.302 86.4854 610.184 86.4854C617.066 86.4854 622.525 87.6748 627.394 89.3364C626.678 93.377 625.608 102.166 625.372 106.924C620.512 104.9 615.171 103.837 607.935 103.837C592.747 103.955 583.371 110.248 583.371 127.245C583.371 138.296 583.371 155.638 583.843 162.766H563.196C563.432 152.905 563.55 138.65 563.55 123.559C563.55 108.232 563.432 96.7094 563.196 86.4944H581.467C581.232 91.7245 581.114 98.371 580.996 104.909L581.83 105.018Z" fill="black"/>
<path d="M695.727 116.586C695.727 106.071 690.985 100.75 672.242 100.75C653.373 100.75 647.914 105.826 648.159 115.859C645.783 115.623 642.582 115.623 639.382 115.623C635.945 115.623 632.617 115.623 630.133 115.986C630.015 96.2828 642.356 86.4946 672.369 86.4946C704.513 86.4946 715.077 98.0988 715.077 115.632C715.077 124.095 714.606 130.741 714.606 139.567C714.606 148.029 715.204 159.025 716.392 162.775H700.351C696.679 162.775 695.845 160.36 695.845 155.884C695.845 153.223 695.845 149.964 696.081 146.577H695.246C690.74 157.091 678.517 162.775 659.657 162.775C638.067 162.775 627.385 156.737 627.385 141.864C627.385 127.118 639.246 120.59 665.587 120.59C678.163 120.59 688.727 121.189 695.718 122.524V116.586H695.727ZM695.609 130.614C687.303 129.643 678.045 129.279 668.325 129.279C652.665 129.279 646.019 132.548 646.019 139.313C646.019 145.959 651.478 149.346 666.548 149.346C685.29 149.346 695.618 142.091 695.618 132.058V130.614H695.609Z" fill="black"/>
<path d="M470.354 86.4854C463.109 104.409 447.695 148.774 442.472 162.757C439.625 162.63 435.825 162.63 431.437 162.63C426.105 162.63 421.354 162.63 419.332 162.757C416.602 154.621 411.026 136.952 406.284 121.062C404.388 114.96 402.72 109.367 401.423 104.791H400.952C399.646 109.494 397.978 115.341 395.847 121.316C390.978 136.57 385.165 153.859 382.082 162.757C379.598 162.757 374.846 162.503 370.929 162.503C365.942 162.503 362.859 162.63 360.964 162.757C355.152 147.121 341.27 104.028 333.317 86.4854H355.034C356.458 92.2057 363.929 115.341 368.672 130.342C370.802 136.698 372.226 141.401 373.296 145.087H373.65C374.955 141.274 376.497 136.189 378.637 129.833C383.497 114.833 389.908 94.7481 391.803 86.4854C394.65 86.6125 400.707 86.6125 404.144 86.6125C407.344 86.6125 411.497 86.6125 414.344 86.4854C416.24 94.3668 422.297 114.833 427.393 130.342C429.768 136.698 431.31 141.655 432.498 145.342H432.969C434.039 141.655 435.345 136.825 437.485 130.469C442.109 115.341 449.109 93.8583 450.896 86.4854H470.354Z" fill="black"/>
<path d="M557.547 86.4857C557.312 93.3773 557.194 103.238 557.194 114.407C557.194 124.385 557.43 134.246 557.43 142.563C557.43 165.844 546.866 178.202 512.228 178.202C494.075 178.202 477.345 175.596 467.027 171.075C468.568 167.034 470.227 159.67 470.944 155.393C482.215 160.86 496.813 163.347 510.451 163.347C528.25 163.347 538.569 159.189 538.805 147.43C538.923 143.626 539.041 139.703 539.403 135.073L538.687 134.954C533.7 142.908 522.91 148.139 505.935 148.139C478.297 148.139 466.9 138.042 467.018 117.839C467.135 96.6915 480.419 86.4766 504.394 86.4766C521.477 86.4766 531.914 90.5171 538.089 97.0547L538.56 96.9367L538.324 92.7781C538.324 90.8803 538.324 88.1473 538.206 86.4857H557.547ZM538.687 106.452C531.569 101.586 521.005 99.3247 510.215 99.3247C492.778 99.3247 486.132 105.145 486.132 118.093C486.132 130.088 493.966 135.681 510.097 135.681C527.298 135.681 538.696 129.27 538.696 117.503V106.452H538.687Z" fill="black"/>
<path d="M742.307 102.911C747.766 92.6145 759.753 86.4946 777.543 86.4946C803.05 86.4946 815.872 100.214 815.872 124.603C815.872 148.992 801.273 163.084 777.19 163.084C759.753 163.084 748.246 157.327 742.425 150.463L741.591 150.708C741.826 154.876 741.826 158.671 741.826 163.084C741.826 168.596 741.944 173.871 741.944 180H722.023C722.377 163.574 722.377 139.431 722.377 120.808C722.377 106.225 722.259 94.4577 722.141 86.4946H741.953C741.835 89.0643 741.835 92.8687 741.835 95.4384C741.835 97.5267 741.718 99.8512 741.6 102.675L742.307 102.911ZM741.482 141.265C748.718 145.796 758.565 148.129 770.434 148.129C788.47 148.129 796.893 140.284 796.893 124.603C796.893 108.922 788.116 101.44 771.504 101.44C754.893 101.44 741.491 108.423 741.491 123.741V141.265H741.482Z" fill="black"/>
<path d="M890.207 162.766C890.442 153.26 890.56 136.625 890.56 121.062C890.56 107.161 884.159 101.694 867.429 101.694C851.77 101.694 839.311 108.468 839.311 124.385C839.311 144.697 839.429 156.347 839.547 162.757H819.38C819.734 152.424 819.734 139.467 819.734 122.242C819.734 102.757 819.616 82.2089 819.38 67H839.791C839.556 75.1992 839.556 81.6187 839.438 88.9826C839.438 93.6133 839.32 97.7719 839.202 102.884L839.8 103.002C845.377 91.3615 857.364 86.0134 875.626 86.0134C897.461 86.0134 910.273 95.1569 910.273 115.832C910.273 124.975 910.037 129.969 910.037 136.144C910.037 144.225 910.037 155.393 910.391 162.757H890.207V162.766Z" fill="black"/>
<path d="M1005.7 86.4857C1005.46 95.0026 1005.46 103.511 1005.46 116.213C1005.46 128.181 1005.7 137.433 1005.7 145.823C1005.7 168.151 995.145 179.991 960.851 179.991C929.179 179.991 917.663 172.582 917.663 156.056C917.663 154.948 917.663 153.841 917.781 152.597C920.274 152.842 923.239 152.969 927.274 152.969C930.711 152.969 933.803 152.842 936.405 152.597C936.288 153.214 936.287 153.95 936.287 154.567C936.287 162.83 943.532 165.545 960.371 165.545C977.1 165.545 986.948 160.978 987.183 148.03C987.301 143.099 987.301 139.022 987.655 133.838L987.183 133.592C981.843 142.6 971.161 147.784 954.323 147.784C929.17 147.784 917.182 139.522 917.182 121.389C917.182 113.989 917.418 109.794 917.418 104.237C917.418 97.9445 917.418 92.0244 917.064 86.4766H936.759C936.523 94.367 936.405 103.874 936.405 118.184C936.405 129.161 943.886 134.219 960.253 134.219C974.96 134.219 986.83 128.054 986.83 115.469V86.4766H1005.7V86.4857Z" fill="black"/>
<path d="M1130.88 126.75V108.625C1123.38 104 1113.25 101.75 1101.5 101.75C1081.75 101.75 1072.13 109.625 1072.13 125.875C1072.13 142.125 1082.25 149.375 1100 149.25C1117.13 149.25 1130.88 141.75 1130.88 126.75ZM1130.38 66.25H1151.38C1150.88 84.75 1151 99.75 1151 124.875C1151 140.875 1151.13 153 1151.25 163H1130.38C1130.5 160 1130.5 157.25 1130.5 153.625C1130.5 151.375 1130.63 149.125 1130.75 146.875L1129.88 146.625C1124.25 157.125 1111.75 164.375 1093.25 164.375C1067.38 164.375 1052.38 151.625 1052.38 125.875C1052.38 100.125 1068.88 86.375 1094.38 86.375C1112.13 86.375 1123.88 91.625 1130 98.75L1130.63 98.625C1130.38 93.75 1130.5 89.25 1130.5 84.125C1130.5 77.625 1130.63 72.5 1130.38 66.25ZM1247.05 125C1247.05 108.625 1234.55 101.375 1216.05 101.375C1197.68 101.375 1185.05 108.375 1185.05 125C1185.05 141.625 1197.55 149.5 1216.05 149.5C1234.8 149.5 1247.05 141.375 1247.05 125ZM1266.8 124.625C1266.8 151.25 1246.68 165.5 1215.93 165.5C1185.3 165.5 1165.68 151.25 1165.68 124.625C1165.68 97.75 1186.43 85.5 1216.05 85.5C1245.68 85.5 1266.8 97.75 1266.8 124.625ZM1371.97 133V134.5C1371.97 151.875 1361.34 165.5 1324.72 165.5C1293.09 165.5 1274.97 151.375 1274.97 125.25C1274.97 99 1292.97 85.75 1325.09 85.75C1355.09 85.75 1371.47 93.75 1371.47 115.75V117.625C1369.22 117.5 1365.47 117.5 1361.72 117.5C1358.22 117.5 1354.97 117.5 1352.84 117.625V116.125C1352.22 106.75 1345.84 101.625 1325.09 101.625C1304.84 101.625 1294.47 108.625 1294.47 125C1294.47 141.75 1304.84 149.125 1325.47 149.125C1345.22 149.125 1352.47 143.375 1352.97 134.5V133C1355.47 133.25 1358.72 133.375 1362.09 133.375C1365.59 133.375 1369.22 133.25 1371.97 133ZM1401.45 137.25V139.125C1401.45 147.375 1408.95 150.5 1430.58 150.5C1450.7 150.5 1456.7 147.75 1456.7 141.5C1456.7 135.875 1452.58 132.75 1425.95 131.75C1393.08 130.25 1384.45 122.25 1384.45 108.625C1384.45 93.5 1396.2 85.75 1428.58 85.75C1458.45 85.75 1472.95 91.875 1472.95 109.5C1472.95 110.75 1472.83 111.875 1472.7 113.25C1470.58 113.125 1467.08 113 1463.7 113C1460.2 113 1456.7 113.125 1454.95 113.125V110.875C1454.95 103.5 1448.7 100.25 1428.2 100.25C1408.58 100.25 1402.95 103.125 1402.95 108.75C1402.95 114 1406.58 117.125 1434.08 118.375C1466.95 120 1474.95 126.625 1474.95 141.375C1474.95 156.875 1463.08 165.125 1429.95 165.125C1395.45 165.125 1383.33 156.875 1383.33 140.75C1383.33 139.625 1383.45 138.5 1383.45 137.25C1385.7 137.5 1388.95 137.625 1392.45 137.625C1395.83 137.625 1399.2 137.625 1401.45 137.25Z" fill="#6D7882"/>
<path d="M0 179.75H125V54.75H0V179.75Z" fill="#6D7882"/>
<path d="M1490.82 154.404C1491.39 153.859 1491.69 153.151 1491.69 152.261C1491.69 151.371 1491.4 150.663 1490.83 150.118C1490.26 149.582 1489.45 149.319 1488.38 149.319H1484.32V158.362H1485.94V155.203H1488.47L1489.8 158.344H1491.64L1490.04 154.885C1490.34 154.785 1490.61 154.612 1490.82 154.404ZM1489.63 153.414C1489.33 153.686 1488.93 153.822 1488.42 153.822H1485.93V150.717H1488.42C1488.93 150.717 1489.33 150.844 1489.63 151.117C1489.93 151.38 1490.08 151.77 1490.08 152.27C1490.09 152.76 1489.94 153.141 1489.63 153.414Z" fill="#6D7882"/>
<path d="M1488 162.866C1483.04 162.866 1479 158.826 1479 153.85C1479 148.883 1483.04 144.833 1488 144.833C1492.96 144.833 1497.01 148.874 1497.01 153.85C1497.01 158.817 1492.97 162.866 1488 162.866ZM1488 146.032C1483.71 146.032 1480.21 149.537 1480.21 153.841C1480.21 158.145 1483.71 161.65 1488 161.65C1492.3 161.65 1495.8 158.145 1495.8 153.841C1495.8 149.537 1492.31 146.032 1488 146.032Z" fill="#6D7882"/>
</svg>
