<svg width="1315" height="196" viewBox="0 0 1315 196" fill="none" xmlns="http://www.w3.org/2000/svg">
<path d="M18.6337 105.018C23.1403 92.3056 33.1054 86.4854 46.9878 86.4854C53.87 86.4854 59.3286 87.6748 64.1979 89.3364C63.4815 93.377 62.4116 102.166 62.1758 106.924C57.3156 104.9 51.9749 103.837 44.739 103.837C29.551 103.955 20.1752 110.248 20.1752 127.245C20.1752 138.296 20.1752 155.638 20.6467 162.766H0C0.235755 152.905 0.353646 138.65 0.353646 123.559C0.353646 108.232 0.235755 96.7094 0 86.4944H18.271C18.0353 91.7245 17.9174 98.371 17.7995 104.909L18.6337 105.018Z" fill="black"/>
<path d="M132.531 116.586C132.531 106.071 127.788 100.75 109.046 100.75C90.1764 100.75 84.7177 105.826 84.9625 115.859C82.5869 115.623 79.386 115.623 76.1852 115.623C72.7486 115.623 69.4209 115.623 66.9364 115.986C66.8185 96.2828 79.1594 86.4946 109.173 86.4946C141.317 86.4946 151.881 98.0988 151.881 115.632C151.881 124.095 151.409 130.741 151.409 139.567C151.409 148.029 152.008 159.025 153.195 162.775H137.173C133.501 162.775 132.667 160.36 132.667 155.884C132.667 153.223 132.667 149.964 132.902 146.577H132.068C127.562 157.091 115.339 162.775 96.4783 162.775C74.8886 162.775 64.207 156.737 64.207 141.864C64.207 127.118 76.0673 120.59 102.408 120.59C114.985 120.59 125.549 121.189 132.54 122.524V116.586H132.531ZM132.413 130.614C124.107 129.643 114.849 129.279 105.129 129.279C89.4691 129.279 82.8226 132.548 82.8226 139.313C82.8226 145.959 88.2812 149.346 103.351 149.346C122.094 149.346 132.422 142.091 132.422 132.058V130.614H132.413Z" fill="black"/>
<path d="M396.83 105.018C401.337 92.3056 411.302 86.4854 425.184 86.4854C432.066 86.4854 437.525 87.6748 442.394 89.3364C441.678 93.377 440.608 102.166 440.372 106.924C435.512 104.9 430.171 103.837 422.935 103.837C407.747 103.955 398.371 110.248 398.371 127.245C398.371 138.296 398.371 155.638 398.843 162.766H378.196C378.432 152.905 378.55 138.65 378.55 123.559C378.55 108.232 378.432 96.7094 378.196 86.4944H396.467C396.232 91.7245 396.114 98.371 395.996 104.909L396.83 105.018Z" fill="black"/>
<path d="M510.727 116.586C510.727 106.071 505.985 100.75 487.242 100.75C468.373 100.75 462.914 105.826 463.159 115.859C460.783 115.623 457.582 115.623 454.382 115.623C450.945 115.623 447.617 115.623 445.133 115.986C445.015 96.2828 457.356 86.4946 487.369 86.4946C519.513 86.4946 530.077 98.0988 530.077 115.632C530.077 124.095 529.606 130.741 529.606 139.567C529.606 148.029 530.204 159.025 531.392 162.775H515.351C511.679 162.775 510.845 160.36 510.845 155.884C510.845 153.223 510.845 149.964 511.081 146.577H510.246C505.74 157.091 493.517 162.775 474.657 162.775C453.067 162.775 442.385 156.737 442.385 141.864C442.385 127.118 454.246 120.59 480.587 120.59C493.163 120.59 503.727 121.189 510.718 122.524V116.586H510.727ZM510.609 130.614C502.303 129.643 493.045 129.279 483.325 129.279C467.665 129.279 461.019 132.548 461.019 139.313C461.019 145.959 466.478 149.346 481.548 149.346C500.29 149.346 510.618 142.091 510.618 132.058V130.614H510.609Z" fill="black"/>
<path d="M285.354 86.4854C278.109 104.409 262.695 148.774 257.472 162.757C254.625 162.63 250.825 162.63 246.437 162.63C241.105 162.63 236.354 162.63 234.332 162.757C231.602 154.621 226.026 136.952 221.284 121.062C219.388 114.96 217.72 109.367 216.423 104.791H215.952C214.646 109.494 212.978 115.341 210.847 121.316C205.978 136.57 200.165 153.859 197.082 162.757C194.598 162.757 189.846 162.503 185.929 162.503C180.942 162.503 177.859 162.63 175.964 162.757C170.152 147.121 156.27 104.028 148.317 86.4854H170.034C171.458 92.2057 178.929 115.341 183.672 130.342C185.802 136.698 187.226 141.401 188.296 145.087H188.65C189.955 141.274 191.497 136.189 193.637 129.833C198.497 114.833 204.908 94.7481 206.803 86.4854C209.65 86.6125 215.707 86.6125 219.144 86.6125C222.344 86.6125 226.497 86.6125 229.344 86.4854C231.24 94.3668 237.297 114.833 242.393 130.342C244.768 136.698 246.31 141.655 247.498 145.342H247.969C249.039 141.655 250.345 136.825 252.485 130.469C257.109 115.341 264.109 93.8583 265.896 86.4854H285.354Z" fill="black"/>
<path d="M372.547 86.4857C372.312 93.3773 372.194 103.238 372.194 114.407C372.194 124.385 372.43 134.246 372.43 142.563C372.43 165.844 361.866 178.202 327.228 178.202C309.075 178.202 292.345 175.596 282.027 171.075C283.568 167.034 285.227 159.67 285.944 155.393C297.215 160.86 311.813 163.347 325.451 163.347C343.25 163.347 353.569 159.189 353.805 147.43C353.923 143.626 354.041 139.703 354.403 135.073L353.687 134.954C348.7 142.908 337.91 148.139 320.935 148.139C293.297 148.139 281.9 138.042 282.018 117.839C282.135 96.6915 295.419 86.4766 319.394 86.4766C336.477 86.4766 346.914 90.5171 353.089 97.0547L353.56 96.9367L353.324 92.7781C353.324 90.8803 353.324 88.1473 353.206 86.4857H372.547ZM353.687 106.452C346.569 101.586 336.005 99.3247 325.215 99.3247C307.778 99.3247 301.132 105.145 301.132 118.093C301.132 130.088 308.966 135.681 325.097 135.681C342.298 135.681 353.696 129.27 353.696 117.503V106.452H353.687Z" fill="black"/>
<path d="M557.307 102.911C562.766 92.6145 574.753 86.4946 592.543 86.4946C618.05 86.4946 630.872 100.214 630.872 124.603C630.872 148.992 616.273 163.084 592.19 163.084C574.753 163.084 563.246 157.327 557.425 150.463L556.591 150.708C556.826 154.876 556.826 158.671 556.826 163.084C556.826 168.596 556.944 173.871 556.944 180H537.023C537.377 163.574 537.377 139.431 537.377 120.808C537.377 106.225 537.259 94.4577 537.141 86.4946H556.953C556.835 89.0643 556.835 92.8687 556.835 95.4384C556.835 97.5267 556.718 99.8512 556.6 102.675L557.307 102.911ZM556.482 141.265C563.718 145.796 573.565 148.129 585.434 148.129C603.47 148.129 611.893 140.284 611.893 124.603C611.893 108.922 603.116 101.44 586.504 101.44C569.893 101.44 556.491 108.423 556.491 123.741V141.265H556.482Z" fill="black"/>
<path d="M705.207 162.766C705.442 153.26 705.56 136.625 705.56 121.062C705.56 107.161 699.159 101.694 682.429 101.694C666.77 101.694 654.311 108.468 654.311 124.385C654.311 144.697 654.429 156.347 654.547 162.757H634.38C634.734 152.424 634.734 139.467 634.734 122.242C634.734 102.757 634.616 82.2089 634.38 67H654.791C654.556 75.1992 654.556 81.6187 654.438 88.9826C654.438 93.6133 654.32 97.7719 654.202 102.884L654.8 103.002C660.377 91.3615 672.364 86.0134 690.626 86.0134C712.461 86.0134 725.273 95.1569 725.273 115.832C725.273 124.975 725.037 129.969 725.037 136.144C725.037 144.225 725.037 155.393 725.391 162.757H705.207V162.766Z" fill="black"/>
<path d="M820.699 86.4857C820.463 95.0026 820.463 103.511 820.463 116.213C820.463 128.181 820.699 137.433 820.699 145.823C820.699 168.151 810.145 179.991 775.851 179.991C744.179 179.991 732.663 172.582 732.663 156.056C732.663 154.948 732.663 153.841 732.781 152.597C735.274 152.842 738.239 152.969 742.274 152.969C745.711 152.969 748.803 152.842 751.405 152.597C751.288 153.214 751.287 153.95 751.287 154.567C751.287 162.83 758.532 165.545 775.371 165.545C792.1 165.545 801.948 160.978 802.183 148.03C802.301 143.099 802.301 139.022 802.655 133.838L802.183 133.592C796.843 142.6 786.161 147.784 769.323 147.784C744.17 147.784 732.182 139.522 732.182 121.389C732.182 113.989 732.418 109.794 732.418 104.237C732.418 97.9445 732.418 92.0244 732.064 86.4766H751.759C751.523 94.367 751.405 103.874 751.405 118.184C751.405 129.161 758.886 134.219 775.253 134.219C789.96 134.219 801.83 128.054 801.83 115.469V86.4766H820.699V86.4857Z" fill="black"/>
<path d="M945.875 126.75V108.625C938.375 104 928.25 101.75 916.5 101.75C896.75 101.75 887.125 109.625 887.125 125.875C887.125 142.125 897.25 149.375 915 149.25C932.125 149.25 945.875 141.75 945.875 126.75ZM945.375 66.25H966.375C965.875 84.75 966 99.75 966 124.875C966 140.875 966.125 153 966.25 163H945.375C945.5 160 945.5 157.25 945.5 153.625C945.5 151.375 945.625 149.125 945.75 146.875L944.875 146.625C939.25 157.125 926.75 164.375 908.25 164.375C882.375 164.375 867.375 151.625 867.375 125.875C867.375 100.125 883.875 86.375 909.375 86.375C927.125 86.375 938.875 91.625 945 98.75L945.625 98.625C945.375 93.75 945.5 89.25 945.5 84.125C945.5 77.625 945.625 72.5 945.375 66.25ZM1062.05 125C1062.05 108.625 1049.55 101.375 1031.05 101.375C1012.68 101.375 1000.05 108.375 1000.05 125C1000.05 141.625 1012.55 149.5 1031.05 149.5C1049.8 149.5 1062.05 141.375 1062.05 125ZM1081.8 124.625C1081.8 151.25 1061.68 165.5 1030.93 165.5C1000.3 165.5 980.679 151.25 980.679 124.625C980.679 97.75 1001.43 85.5 1031.05 85.5C1060.68 85.5 1081.8 97.75 1081.8 124.625ZM1186.97 133V134.5C1186.97 151.875 1176.34 165.5 1139.72 165.5C1108.09 165.5 1089.97 151.375 1089.97 125.25C1089.97 99 1107.97 85.75 1140.09 85.75C1170.09 85.75 1186.47 93.75 1186.47 115.75V117.625C1184.22 117.5 1180.47 117.5 1176.72 117.5C1173.22 117.5 1169.97 117.5 1167.84 117.625V116.125C1167.22 106.75 1160.84 101.625 1140.09 101.625C1119.84 101.625 1109.47 108.625 1109.47 125C1109.47 141.75 1119.84 149.125 1140.47 149.125C1160.22 149.125 1167.47 143.375 1167.97 134.5V133C1170.47 133.25 1173.72 133.375 1177.09 133.375C1180.59 133.375 1184.22 133.25 1186.97 133ZM1216.45 137.25V139.125C1216.45 147.375 1223.95 150.5 1245.58 150.5C1265.7 150.5 1271.7 147.75 1271.7 141.5C1271.7 135.875 1267.58 132.75 1240.95 131.75C1208.08 130.25 1199.45 122.25 1199.45 108.625C1199.45 93.5 1211.2 85.75 1243.58 85.75C1273.45 85.75 1287.95 91.875 1287.95 109.5C1287.95 110.75 1287.83 111.875 1287.7 113.25C1285.58 113.125 1282.08 113 1278.7 113C1275.2 113 1271.7 113.125 1269.95 113.125V110.875C1269.95 103.5 1263.7 100.25 1243.2 100.25C1223.58 100.25 1217.95 103.125 1217.95 108.75C1217.95 114 1221.58 117.125 1249.08 118.375C1281.95 120 1289.95 126.625 1289.95 141.375C1289.95 156.875 1278.08 165.125 1244.95 165.125C1210.45 165.125 1198.33 156.875 1198.33 140.75C1198.33 139.625 1198.45 138.5 1198.45 137.25C1200.7 137.5 1203.95 137.625 1207.45 137.625C1210.83 137.625 1214.2 137.625 1216.45 137.25Z" fill="#6D7882"/>
<path d="M1308.82 154.404C1309.39 153.859 1309.69 153.151 1309.69 152.261C1309.69 151.371 1309.4 150.663 1308.83 150.118C1308.26 149.582 1307.45 149.319 1306.38 149.319H1302.32V158.362H1303.94V155.203H1306.47L1307.8 158.344H1309.64L1308.04 154.885C1308.34 154.785 1308.61 154.612 1308.82 154.404ZM1307.63 153.414C1307.33 153.686 1306.93 153.822 1306.42 153.822H1303.93V150.717H1306.42C1306.93 150.717 1307.33 150.844 1307.63 151.117C1307.93 151.38 1308.08 151.77 1308.08 152.27C1308.09 152.76 1307.94 153.141 1307.63 153.414Z" fill="#6D7882"/>
<path d="M1306 162.866C1301.04 162.866 1297 158.826 1297 153.85C1297 148.883 1301.04 144.833 1306 144.833C1310.96 144.833 1315.01 148.874 1315.01 153.85C1315.01 158.817 1310.97 162.866 1306 162.866ZM1306 146.032C1301.71 146.032 1298.21 149.537 1298.21 153.841C1298.21 158.145 1301.71 161.65 1306 161.65C1310.3 161.65 1313.8 158.145 1313.8 153.841C1313.8 149.537 1310.31 146.032 1306 146.032Z" fill="#6D7882"/>
</svg>
